HIERARCHY
ROOT Hips
{
	OFFSET 0.000000 0.000000 0.000000 
	CHANNELS 6 Xposition Yposition Zposition Yrotation Zrotation Xrotation 
	JOINT Lumbar
	{
		OFFSET 0.000000 0.000000 0.000000 
		CHANNELS 3 Zrotation Xrotation Yrotation
		JOINT Neck
		{
			OFFSET 0.000000 0.445665 0.000000 
			CHANNELS 3 Zrotation Xrotation Yrotation
			End Site
			{
				OFFSET 0.000000 0.227535 0.000000 
			}
		}
		JOINT RightShoulder
		{
			OFFSET 0.019635 0.377685 0.194865 
			CHANNELS 3 Zrotation Xrotation Yrotation
			JOINT RightElbow
			{
				OFFSET 0.000000 -0.243375 0.000000 
				CHANNELS 2 Zrotation Yrotation
				JOINT RightWrist
				{
					OFFSET 0.000000 -0.264825 0.000000 
					CHANNELS 2 Zrotation Xrotation
					End Site
					{
						OFFSET 0.006600 -0.176220 0.000990 
					}
				}
			}
		}
		JOINT LeftShoulder
		{
			OFFSET 0.019635 0.377685 -0.194865 
			CHANNELS 3 Zrotation Xrotation Yrotation
			JOINT LeftElbow
			{
				OFFSET 0.000000 -0.243375 0.000000 
				CHANNELS 2 Zrotation Yrotation
				JOINT LeftWrist
				{
					OFFSET 0.000000 -0.264825 0.000000 
					CHANNELS 2 Zrotation Xrotation
					End Site
					{
						OFFSET 0.006600 -0.176220 -0.000990 
					}
				}
			}
		}
	}
	JOINT RightHip
	{
		OFFSET 0.052140 -0.069960 0.075570 
		CHANNELS 3 Zrotation Xrotation Yrotation
		JOINT RightKnee
		{
			OFFSET 0.000000 -0.402270 0.000000 
			CHANNELS 1 Zrotation
			JOINT RightAnkle
			{
				OFFSET 0.000000 -0.404085 0.000000 
				CHANNELS 3 Zrotation Xrotation Yrotation
				End Site
				{
					OFFSET 0.204105 -0.089430 0.008415 
				}
			}
		}
	}
	JOINT LeftHip
	{
		OFFSET 0.052140 -0.069960 -0.075570 
		CHANNELS 3 Zrotation Xrotation Yrotation
		JOINT LeftKnee
		{
			OFFSET 0.000000 -0.402270 0.000000 
			CHANNELS 1 Zrotation
			JOINT LeftAnkle
			{
				OFFSET 0.000000 -0.404085 0.000000 
				CHANNELS 3 Zrotation Xrotation Yrotation
				End Site
				{
					OFFSET 0.204105 -0.089430 -0.008415 
				}
			}
		}
	}
}
MOTION
Frames: 35
Frame Time: 0.02
-0 0.95578 -0 173.85215 0 -4.14593 6.09173 4.43908 1.35047 -26.52365 1.30684 2.00317 12.81071 -65.10606 -76.32429 22.01031 64.65648 -26.31425 -1.2124 19.97449 65.20368 67.99981 20.14192 -71.13435 -20.64365 2.5375 -1.19736 8.75154 -2.81161 -9.21309 2.62809 -5.47284 -15.36409 -2.42321 0.99009 5.70444 -5.79782 5.9945 6.54245 10.17899
8e-05 0.95571 0.00041 173.94778 0 -4.15732 6.15509 4.41851 1.35701 -26.76861 1.21153 1.96655 12.99901 -64.79663 -76.45863 21.84002 64.82713 -26.11062 -1.33824 20.13542 65.14468 67.859 20.60445 -70.70271 -20.34542 2.31696 -1.15636 8.68202 -3.61406 -9.29816 2.71658 -5.52927 -14.59368 -2.40241 0.98034 5.63586 -5.80998 6.02059 6.54562 10.17465
0.00016 0.95563 0.00083 174.04303 0 -4.16875 6.21809 4.39808 1.36344 -27.01234 1.11697 1.93019 13.18748 -64.48906 -76.59139 21.67064 64.9977 -25.90804 -1.4629 20.29852 65.08602 67.71588 21.06288 -70.27563 -20.04921 2.09861 -1.11543 8.61302 -4.4105 -9.38286 2.80442 -5.58524 -13.8292 -2.38163 0.97065 5.56735 -5.82206 6.04649 6.54879 10.17056
0.00024 0.95555 0.00124 174.13791 0 -4.18011 6.28043 4.3778 1.36969 -27.25398 1.02391 1.8943 13.37818 -64.18525 -76.72063 21.50256 65.17003 -25.70835 -1.58334 20.47233 65.02901 67.56081 21.50964 -69.86164 -19.75746 1.88662 -1.07392 8.54526 -5.1909 -9.46802 2.89106 -5.64013 -13.08203 -2.36063 0.96085 5.49773 -5.83427 6.07192 6.55199 10.16774
0.0003 0.95547 0.00165 174.23505 0 -4.19143 6.34646 4.35645 1.37713 -27.50722 0.92226 1.85569 13.55674 -63.86074 -76.87032 21.32678 65.3334 -25.49414 -1.72526 20.58999 64.96436 67.46746 22.01849 -69.37706 -19.44119 1.64061 -1.03492 8.47077 -6.0565 -9.55205 2.98467 -5.70099 -12.2445 -2.34069 0.95132 5.43312 -5.84617 6.09986 6.55503 10.15855
0.0004 0.9554 0.00207 174.32709 0 -4.20308 6.40445 4.33755 1.38189 -27.73529 0.83931 1.82303 13.76102 -63.5809 -76.97538 21.16803 65.51532 -25.31032 -1.82223 20.82589 64.9152 67.24472 22.39534 -69.04311 -19.17771 1.46704 -0.99106 8.41071 -6.74086 -9.63749 3.06302 -5.74901 -11.59803 -2.31859 0.94147 5.35857 -5.85847 6.12244 6.5584 10.16258
0.00061 0.95536 0.00248 174.40895 0 -4.21385 6.44258 4.32368 1.38046 -27.90082 0.80387 1.80511 14.04284 -63.41601 -76.96555 21.04897 65.75947 -25.21281 -1.78783 21.41032 64.9149 66.63608 22.40627 -69.12696 -19.05399 1.4943 -0.9284 8.38917 -6.92684 -9.73731 3.10365 -5.76297 -11.48831 -2.2891 0.92848 5.24867 -5.87421 6.13068 6.56291 10.20699
0.00086 0.95533 0.0029 174.48495 0 -4.22528 6.47215 4.31254 1.3761 -28.0398 0.78803 1.79347 14.34979 -63.29734 -76.90893 20.94839 66.02186 -25.14526 -1.70932 22.11068 64.92891 65.9014 22.28428 -69.3645 -18.98519 1.59476 -0.86162 8.38242 -6.92958 -9.83694 3.12817 -5.76375 -11.56986 -2.25766 0.91555 5.1301 -5.88992 6.13347 6.56772 10.26411
0.00109 0.9553 0.00332 174.5613 0 -4.23766 6.50422 4.3013 1.37234 -28.18661 0.76589 1.78003 14.64131 -63.1631 -76.86848 20.84388 66.26746 -25.06251 -1.6557 22.74445 64.93272 65.24211 22.22396 -69.5283 -18.89426 1.66102 -0.80028 8.36978 -7.01511 -9.92971 3.15718 -5.76964 -11.55762 -2.228 0.9041 5.02046 -5.90414 6.13846 6.57224 10.31295
0.00131 0.95526 0.00374 174.64773 0 -4.2449 6.54233 4.2854 1.37171 -28.35136 0.73281 1.76218 14.94949 -63.00695 -76.85028 20.72022 66.54373 -24.98712 -1.58175 23.43697 64.95306 64.50632 22.1581 -69.70087 -18.78879 1.73044 -0.72438 8.35367 -7.10302 -10.05098 3.19791 -5.77912 -11.57368 -2.19456 0.88641 4.88965 -5.92471 6.14454 6.57738 10.37231
0.00157 0.95525 0.00414 174.71137 0 -4.26285 6.5656 4.27968 1.36378 -28.47232 0.72711 1.75499 15.22921 -62.90617 -76.77369 20.64122 66.76695 -24.90273 -1.53951 24.03448 64.9412 63.9001 22.07245 -69.9013 -18.72993 1.81164 -0.67721 8.34823 -7.14199 -10.11385 3.21068 -5.77814 -11.57713 -2.16855 0.88159 4.80105 -5.93205 6.14715 6.58132 10.41285
0.00188 0.95532 0.00448 174.71699 0 -4.31147 6.55181 4.30268 1.33714 -28.47981 0.79272 1.77561 15.42263 -62.95561 -76.55354 20.67795 66.78631 -24.79322 -1.59758 24.34328 64.84527 63.68122 21.96252 -70.05718 -18.75961 1.899 -0.71534 8.36931 -7.09465 -10.00729 3.14801 -5.75028 -11.49091 -2.1632 0.91337 4.82946 -5.90317 6.14089 6.58184 10.39784
0.00222 0.95541 0.00479 174.69919 0 -4.37062 6.52297 4.33552 1.30301 -28.44391 0.88511 1.80666 15.58727 -63.05628 -76.27399 20.75974 66.76338 -24.67266 -1.68917 24.55219 64.71377 63.59753 21.83765 -70.25034 -18.84029 1.99715 -0.78147 8.40053 -7.00356 -9.84367 3.05822 -5.71258 -11.38693 -2.16537 0.95792 4.90089 -5.86109 6.13161 6.58123 10.36362
0.00256 0.95549 0.00511 174.68984 0 -4.42415 6.49995 4.36313 1.272 -28.42731 0.96491 1.83312 15.76554 -63.12948 -76.01895 20.82269 66.79211 -24.55205 -1.76355 24.80547 64.59445 63.45255 21.72105 -70.48285 -18.91385 2.09603 -0.83166 8.42665 -6.93 -9.71135 2.9822 -5.68019 -11.29626 -2.16444 0.99588 4.95379 -5.82463 6.12395 6.58109 10.33845
0.00288 0.95558 0.00544 174.68963 0 -4.48127 6.4813 4.39438 1.24257 -28.41177 1.04717 1.85953 15.94052 -63.22727 -75.77727 20.87865 66.67685 -24.45239 -1.84286 25.06683 64.49693 63.30175 21.59359 -70.48767 -18.91738 2.17411 -0.89574 8.45525 -6.86032 -9.55568 2.8993 -5.6438 -11.18989 -2.1625 1.03705 5.00232 -5.78907 6.11444 6.58083 10.31212
0.00323 0.95565 0.00575 174.66479 0 -4.53335 6.44964 4.41992 1.20751 -28.38378 1.1304 1.88798 16.11752 -63.27878 -75.48862 20.96052 66.86084 -24.30797 -1.92277 25.28651 64.33978 63.19783 21.48692 -70.9678 -19.08337 2.2966 -0.937 8.48101 -6.77409 -9.43596 2.82475 -5.61362 -11.10981 -2.16397 1.07472 5.06997 -5.74939 6.1089 6.58093 10.28378
0.0036 0.95569 0.00604 174.57819 0 -4.56922 6.38934 4.431 1.16379 -28.33437 1.20984 1.92356 16.28673 -63.24467 -75.13112 21.09457 67.79836 -24.0258 -1.97648 25.4113 64.07245 63.18321 21.44017 -72.79722 -19.63388 2.54345 -0.91336 8.49532 -6.65715 -9.42241 2.77791 -5.60275 -11.10377 -2.17719 1.09808 5.18274 -5.69452 6.10915 6.57947 10.25219
0.00399 0.9557 0.00631 174.46719 0 -4.59955 6.31569 4.43526 1.11376 -28.27345 1.28922 1.96007 16.46241 -63.15056 -74.71861 21.25409 69.05313 -23.7017 -2.03347 25.49752 63.73648 63.21364 21.41449 -75.09207 -20.3506 2.83349 -0.86472 8.50654 -6.52477 -9.44859 2.74095 -5.59866 -11.12459 -2.19269 1.11771 5.31272 -5.63763 6.11505 6.57922 10.21987
0.00439 0.95572 0.00657 174.36754 0 -4.63226 6.24601 4.44026 1.06324 -28.21666 1.36847 1.99347 16.64871 -63.04938 -74.30287 21.40796 70.21816 -23.40803 -2.10217 25.60395 63.40343 63.228 21.38218 -77.14585 -21.03098 3.10049 -0.82453 8.5198 -6.39809 -9.46088 2.7007 -5.5916 -11.13378 -2.2046 1.14009 5.43305 -5.58588 6.12176 6.57991 10.18902
0.00473 0.95576 0.00689 174.26747 0 -4.66608 6.18523 4.45571 1.02647 -28.16377 1.44933 2.03854 16.77779 -63.10003 -74.00979 21.54047 71.15528 -23.06702 -2.11656 25.69681 63.19363 63.22607 21.342 -79.33517 -21.56776 3.38219 -0.79834 8.53068 -6.27702 -9.45254 2.654 -5.58343 -11.13918 -2.22811 1.15864 5.56279 -5.51447 6.11241 6.57312 10.15158
0.0052 0.95576 0.00708 174.1609 0 -4.69594 6.10223 4.44744 0.95989 -28.09961 1.52647 2.05945 17.02666 -62.81317 -73.44196 21.72033 72.63876 -22.81346 -2.24405 25.80862 62.70488 63.26996 21.31692 -81.34043 -22.41728 3.64352 -0.73576 8.5457 -6.13907 -9.4987 2.624 -5.57967 -11.16013 -2.22721 1.18392 5.67622 -5.4854 6.13999 6.58364 10.12934
0.00597 0.95569 0.0069 174.05826 0 -4.71785 5.96726 4.37692 0.81039 -28.01531 1.5935 2.01304 17.61522 -61.66213 -72.18733 22.04508 75.58343 -22.82025 -2.68588 25.99448 61.51578 63.40015 21.38431 -82.82463 -24.30734 3.83553 -0.58622 8.57253 -5.97769 -9.67513 2.63328 -5.58333 -11.20654 -2.16418 1.23016 5.74222 -5.55962 6.25045 6.62962 10.1375
0.00686 0.95559 0.00658 173.94677 0 -4.73564 5.80928 4.28238 0.6314 -27.91854 1.65678 1.94245 18.32163 -60.16307 -70.64665 22.41136 79.05683 -22.91283 -3.24045 26.19875 60.03756 63.57714 21.45581 -84.08911 -26.46714 4.00507 -0.39916 8.60359 -5.79708 -9.90779 2.66011 -5.59171 -11.26873 -2.07541 1.28299 5.79071 -5.67931 6.40121 6.69541 10.16322
0.00771 0.9555 0.00631 173.82941 0 -4.75417 5.65801 4.19777 0.46761 -27.82259 1.72138 1.88297 18.96816 -58.78856 -69.19994 22.74654 82.27466 -22.96319 -3.74168 26.38724 58.65836 63.75438 21.48881 -85.38679 -28.35838 4.18763 -0.2246 8.63297 -5.61202 -10.12127 2.6818 -5.60018 -11.33222 -1.99451 1.33172 5.8457 -5.78739 6.54519 6.75979 10.1888
0.00852 0.95544 0.00607 173.75417 0 -4.7772 5.52234 4.11719 0.2967 -27.7475 1.78703 1.82243 19.64424 -57.55491 -67.90675 23.13921 85.58757 -23.03434 -4.25299 26.60636 57.41761 63.85282 21.67714 -86.97932 -30.86499 4.36349 -0.06944 8.66147 -5.47959 -10.30718 2.69139 -5.59996 -11.36512 -1.92973 1.38485 5.90721 -5.85678 6.64072 6.79137 10.18154
0.00944 0.95531 0.00575 173.58787 0 -4.79008 5.34858 4.02247 0.13278 -27.6251 1.85035 1.75909 20.28334 -55.9447 -66.22237 23.41548 88.79942 -23.0723 -4.76869 26.76566 55.81548 64.11287 21.5427 -87.903 -32.16025 4.54286 0.13601 8.69254 -5.23629 -10.56586 2.7308 -5.61821 -11.45977 -1.82538 1.43059 5.95108 -6.01805 6.84661 6.89694 10.24651
0.01067 0.95496 0.00526 173.18556 0 -4.77477 5.07771 3.89578 0.00335 -27.38384 1.90141 1.68703 20.81839 -53.3911 -63.56195 23.41288 91.812 -23.09116 -5.27869 26.76399 53.33266 64.90724 20.51675 -87.00092 -29.97072 4.77674 0.46094 8.73229 -4.66441 -10.99087 2.84351 -5.69153 -11.76674 -1.61685 1.453 5.94765 -6.4181 7.34754 7.19367 10.50949
0.01201 0.95454 0.0047 172.68957 0 -4.74964 4.76883 3.75554 -0.11943 -27.0936 1.9514 1.61388 21.30602 -50.46909 -60.51052 23.28189 94.66497 -23.05707 -5.78622 26.70059 50.489 65.83565 19.16672 -85.43751 -26.56639 5.00777 0.83749 8.77396 -3.98639 -11.49122 2.98648 -5.78203 -12.12648 -1.36965 1.46801 5.92762 -6.90978 7.95791 7.56565 10.84381
0.01328 0.95415 0.00416 172.22784 0 -4.72978 4.4759 3.62065 -0.25055 -26.82039 2.00648 1.5462 21.79901 -47.70817 -57.61734 23.17477 97.451 -22.98524 -6.28989 26.65925 47.77891 66.64754 17.96302 -84.1953 -23.76499 5.21358 1.19631 8.8131 -3.37533 -11.9701 3.1187 -5.86148 -12.43219 -1.14085 1.4873 5.91687 -7.36202 8.51824 7.90871 11.14391
0.01464 0.95376 0.00366 171.8008 0 -4.70636 4.18809 3.48809 -0.36054 -26.56974 2.04248 1.45821 22.36884 -44.96031 -54.80066 23.21402 100.84048 -23.17454 -6.82324 26.64162 45.18221 67.72932 16.75886 -82.85658 -20.75574 5.5289 1.5301 8.85955 -2.68608 -12.39562 3.23887 -5.95573 -12.86597 -0.90745 1.50296 5.8978 -7.80654 9.08194 8.23048 11.45315
0.01583 0.95336 0.00307 171.27947 0 -4.68807 3.88049 3.34807 -0.51221 -26.25945 2.11738 1.41069 22.76035 -42.1042 -51.72996 22.91822 102.93334 -22.80974 -7.28679 26.56249 42.27355 68.23821 15.48445 -81.56707 -17.89074 5.61786 1.93053 8.89096 -2.13279 -12.95122 3.39108 -6.022 -13.04451 -0.67506 1.52431 5.89284 -8.28833 9.66327 8.61384 11.75891
0.01657 0.95295 0.00227 170.51999 0 -4.68672 3.53133 3.18896 -0.78323 -25.80701 2.30472 1.4912 22.71662 -39.02555 -48.10577 21.72243 101.43874 -20.89895 -7.60883 26.30573 38.5431 67.4913 14.04848 -80.55985 -15.69432 5.0666 2.47871 8.88251 -1.99803 -13.82971 3.62364 -6.01687 -12.5134 -0.45287 1.56347 5.92566 -8.84991 10.27321 9.15152 12.04718
0.01713 0.95254 0.00138 169.66908 0 -4.69106 3.16314 3.02371 -1.09556 -25.29471 2.52984 1.60945 22.48563 -35.85578 -44.2337 20.19601 98.65225 -18.43865 -7.85113 25.99417 34.52371 66.09667 12.56387 -79.63258 -13.69114 4.29248 3.09629 8.8586 -2.00076 -14.83789 3.88688 -5.98128 -11.72299 -0.23373 1.60863 5.9736 -9.44558 10.89551 9.74778 12.32736
0.01774 0.95214 0.00051 168.8605 0 -4.6923 2.80114 2.86203 -1.3874 -24.80247 2.73517 1.70022 22.31036 -32.73751 -40.43898 18.82334 96.48275 -16.24675 -8.0956 25.72163 30.66737 64.76204 11.12948 -78.67518 -11.61266 3.62864 3.69758 8.84014 -1.92932 -15.80027 4.13712 -5.95276 -11.04463 -0.01446 1.6507 6.01908 -10.02605 11.50773 10.31563 12.60519
0.01847 0.95172 -0.0003 168.04517 0 -4.69445 2.44757 2.69479 -1.68721 -24.33709 2.95361 1.83518 22.25902 -29.5603 -36.76883 17.42664 94.17537 -13.96873 -8.48204 25.38413 26.6559 64.41861 9.55622 -77.65325 -9.42891 2.91938 4.23682 8.82774 -1.90314 -16.71674 4.38666 -5.95259 -10.38847 0.21221 1.69364 6.04837 -10.60914 12.14324 10.8945 12.912
